<svg xmlns="http://www.w3.org/2000/svg" xmlns:xlink="http://www.w3.org/1999/xlink" width="2048" height="2048"><g><svg xmlns="http://www.w3.org/2000/svg" xmlns:xlink="http://www.w3.org/1999/xlink" width="2048" height="2048"/><svg xmlns="http://www.w3.org/2000/svg" width="2048" height="2048" version="1.0" viewBox="0 0 2048 2048"><g fill="#defab9" transform="matrix(.1 0 0 -.1 0 2048)"><path d="M0 10240V0h20480v20480H0V10240z"/></g></svg><svg xmlns="http://www.w3.org/2000/svg" width="2048" height="2048" version="1.0" viewBox="0 0 2048 2048"><g fill="#a9d196" transform="matrix(.1 0 0 -.1 0 2048)"><path d="M0 10240V0h20480v20480H0V10240zm10295 4295c255-45 445-263 445-511v-75l-57 39c-167 114-313 162-487 162-204 0-394-68-518-185-15-14-30-25-34-25s-4 46-1 103c5 110 24 173 79 262 66 109 238 216 373 234 99 12 111 12 200-4zm-2029-440c335-58 583-211 791-489 121-161 173-281 194-441 32-251 127-443 308-626 113-113 209-173 350-220 235-79 524-44 742 87 86 52 204 162 268 248 45 61 123 210 143 274 7 23 16 42 20 42 5 0 8 15 8 34s4 38 10 41c5 3 9 20 8 38s4 43 11 55 9 27 5 33c-8 13 13 123 32 164 7 17 22 51 33 78 36 86 170 275 249 354 88 86 168 141 300 207 394 197 832 179 1178-50 156-103 341-325 412-495 88-212 122-472 87-670-41-238-148-448-315-623-188-196-322-273-589-341-55-14-108-25-119-25-52 0-78-105-35-140 12-10 19-21 15-25-4-5-2-6 3-2 6 3 38-4 70-15 49-17 85-21 200-21 123 0 150 3 228 27 100 30 170 63 239 112l47 33 35-62c118-211 200-443 226-646 17-130-11-221-78-255-57-29-133-4-317 103-357 208-795 387-1265 514-165 45-490 121-565 131-22 3-98 15-170 26-327 49-501 63-785 64-274 1-418-6-595-29-66-9-142-18-170-21-27-3-88-12-135-20s-110-19-140-24c-144-25-309-61-530-117-74-19-151-39-170-44-90-22-520-174-650-229-146-61-454-216-564-284-217-132-327-89-326 126 1 46 5 101 10 123s14 63 20 90c11 55 45 163 65 210 7 17 28 68 45 115 33 88 88 200 99 200 3 0 19-7 34-15s25-10 22-5c-10 16-2 13 88-35 158-85 333-113 500-81 152 29 214 75 195 143-9 35 3 30-223 92-258 71-462 210-623 424-155 206-228 409-238 667-6 152 6 248 60 443 46 173 198 391 365 525 127 102 367 205 541 231 91 14 252 12 346-4zm1998-410c330-59 508-404 363-703-44-91-132-179-220-221-171-82-399-56-530 59-48 42-118 140-146 204-60 137-43 343 38 461 60 89 200 176 320 200 85 17 82 17 175 0zm-59-3359c102-1 176 3 184 9 12 8 13 7 6-4-6-11-3-13 13-9 12 4 20 3 18-1-4-6 57-37 108-55 11-4 16-12 12-22-5-12-2-15 9-10 9 3 23 2 33-3 53-27 73-33 91-28 27 7 38-23 14-41-10-7-26-11-36-8-9 2-15 0-12-4 3-5-11-14-32-19-266-74-528-81-773-21-101 25-126 35-111 44 8 5 4 14-15 28-24 20-25 22-8 31 10 6 32 13 49 17 16 4 29 12 28 18-2 7 9 12 27 12 17 0 30 4 30 8 0 5 16 9 35 10 35 1 65 20 65 40 0 16 22 22 60 15 19-3 112-6 205-7zm-535-140c0-3-4-8-10-11-5-3-10-1-10 4 0 6 5 11 10 11 6 0 10-2 10-4zm40-20c0-9-7-12-20-9-11 3-17 9-14 14 8 14 34 10 34-5zm-3317-341c43-9 123-32 178-51 104-36 269-110 269-120 0-13-51-91-78-119-67-70-122-175-171-325-57-174-66-405-26-626 14-76 25-150 23-164-3-26-7-28-173-79-147-45-219-133-219-271-1-83 18-131 113-300 92-162 84-237-31-294-64-32-82-32-135-2-96 55-323 269-458 431-152 182-317 471-385 675-55 166-72 268-72 435 0 169 18 260 72 372 39 78 117 186 131 178 5-4 8-2 7 3-5 15 92 103 104 96 6-4 8-3 4 4-7 12 28 35 122 82 81 40 158 64 252 80 41 6 82 13 90 15 38 10 313-5 383-20zm8107 1c165-30 305-108 440-245 63-63 96-107 127-166 70-137 85-197 90-387 5-146 3-179-17-268-76-359-327-776-646-1079-108-102-214-185-282-220-43-22-43-22-90-1-79 35-122 89-122 152 0 33 23 82 113 248 79 146 90 230 45 327-35 75-107 125-242 167-90 29-113 41-120 64-4 11 3 65 14 120 39 199 45 312 25 452-39 278-115 455-259 608-27 29-47 54-45 56 9 10 169 80 239 106 99 36 230 68 316 76 38 4 71 9 74 11 9 9 262-7 340-21zm-3775-296c-3-5-13-6-21-3-12 4-13 8-3 14 15 9 32 2 24-11zm-1025-1c0-5 5-9 11-9 5 0 7 5 3 12-5 8-2 9 12 4 23-9 20-9 184-36 179-30 452-25 628 11 94 19 119 21 146 11 18-7 48-12 67-12 44-1 126-23 141-38 7-7 20-12 29-12 10 0 20-4 24-10 3-5 12-7 20-3 8 3 15 1 15-4 0-13 63-11 72 2 5 6 8 5 8-3 0-9 8-11 23-7 43 11-119-68-198-97-466-171-1042-156-1476 38-43 20-58 31-54 42 4 12 3 13-10 2-11-9-15-9-15-1 0 7-4 10-8 7-4-2-14 0-22 5-11 8-8 9 13 6 16-2 45-1 65 4s52 12 71 15c18 3 51 15 72 26s57 22 79 25c38 5 52 17 30 25-6 2 7 4 30 4 22 1 40-2 40-7zm1450-63c0-2-7-7-16-10-8-3-12-2-9 4 6 10 25 14 25 6zm-3757-34c-2-10 3-24 11-31 19-16 21-1 4 20-7 7 6-4 29-25 23-22 40-43 37-48s-2-7 3-6c4 2 24-9 43-24 89-68 198-77 267-22 65 50 91 64 126 64 61 0 64-8 71-186 16-417 66-720 178-1062 181-558 473-1046 856-1430 141-141 222-207 422-343 84-57 170-123 190-147 98-111 65-288-64-348-109-51-214-24-523 131-381 191-657 387-922 655-220 221-405 472-529 718-180 353-270 669-307 1066-24 264-17 485 24 741 26 161 65 295 86 295 2 0 1-8-2-18zm5610-4c3-13 15-54 26-93 54-176 89-534 77-786-15-339-85-670-202-960-213-533-653-1060-1169-1401-160-105-546-306-661-343-39-13-88-20-145-20-77 0-90 3-127 28-23 15-54 46-69 69-24 36-28 51-28 117 0 69 3 81 34 129 36 58 117 126 138 117 8-2 12-1 8 4-3 5 39 40 92 77 54 37 126 89 161 116 34 27 67 46 73 43 5-4 8-3 7 2-2 5 62 74 142 154 427 424 752 1002 909 1614 73 287 121 642 121 902 0 132 1 139 23 153 41 27 69 22 137-24 36-24 82-50 104-56 82-26 164 10 272 120 32 33 62 60 65 60 4 0 9-10 12-22zm-2704-761c60-40 94-97 99-168 6-78-2-102-46-151-87-96-221-105-307-20-47 47-65 88-65 152 0 90 46 164 125 202 57 27 140 21 194-15zm-552-915c263-71 595-69 877 4 33 9 74 13 91 10 19-4 25-3 16 3-8 5-9 11-3 15 6 3 13-2 17-13 4-15 19-22 63-28 31-4 69-6 85-5 15 2 34-4 43-12 9-10 33-16 60-16 26 0 44-5 44-11 0-7 11-9 30-5 33 6 40-7 13-23-10-6-14-11-10-11s19 7 33 16c13 9 27 14 30 11 11-11-222-117-346-157-208-68-356-90-592-90-332 0-525 40-811 167-54 24-56 27-41 44 9 10 23 15 32 12 14-4 14-3 3 5-20 15-4 32 31 32 22 0 29 4 25 14s-1 13 9 9c7-3 22-2 32 3 9 4 20 8 24 8 3 1 10 4 14 9 4 4 17 7 29 7 28 0 38 10 25 25-16 20 51 11 177-23zm1433-46c0-2-7-7-16-10-8-3-12-2-9 4 6 10 25 14 25 6zm-1903-31c0-8-4-12-9-9s-6 10-3 15c9 13 12 11 12-6zm83 1c0-2-10-11-23-19-17-11-28-12-38-5-11 8-10 9 4 4 11-3 20 0 23 9 5 13 34 22 34 11zm-3305-770c11-12 26-22 34-24 7-1 36-17 65-35 66-43 84-49 105-38 10 6 23 6 32 0 12-7 11-9-3-9-21 0-266-99-383-155-96-46-171-104-195-151-8-16-32-55-53-88-32-47-49-63-93-82-94-41-170-26-241 48-41 43-53 76-53 146 0 45 7 68 31 110 16 29 40 57 52 62s18 9 12 10c-19 1 86 61 168 94 161 66 399 134 462 133 27 0 47-7 60-21zm8455-5c179-45 250-68 361-117 107-47 173-89 164-104-2-4 3-14 13-21 16-13 16-12 3 6-9 12-4 10 13-6 28-26 55-111 56-169 0-31-33-95-67-131-36-39-105-62-165-57-67 7-123 48-174 128-23 36-58 84-79 108-46 52-163 117-306 171-137 52-178 70-157 71 9 0 20 5 24 11 4 8-1 9-17 4-13-3-19-3-14 2 6 4 18 20 28 35 12 19 22 25 34 21 10-4 14-2 10 4-9 14 10 28 46 37 15 4 30 13 33 21 9 23 65 19 194-14zm-7496-375c28-14 96-54 151-90 99-64 99-64 65-69-405-58-544-117-598-252-17-42-77-103-119-120-20-8-60-15-90-15-119 0-203 86-203 208 0 51 36 137 57 137 6 0 15 4 20 9s3 6-4 2c-16-9-17 6-1 22s31 15 22 0c-4-8-3-10 2-5s9 14 9 20c0 7 43 33 95 59 138 69 408 134 509 122 19-2 57-15 85-28zm6623 9c188-40 391-115 376-138-3-6-1-7 5-3 15 9 73-34 65-47-3-6-1-7 4-4 6 4 18-2 28-13 45-50 59-174 26-238-41-80-108-117-200-110-82 6-129 39-180 125-21 38-52 80-68 95-37 35-111 71-198 97-75 22-289 61-335 61-16 0-35 3-44 6-20 8 12 35 122 104 156 96 212 105 399 65zm-1432 7248c-139-13-289-64-398-136-112-73-260-240-309-347-110-240-114-534-11-761 60-131 169-266 283-353 177-133 424-191 650-152 98 17 237 63 296 98 18 11 38 17 44 13s9-2 8 3c-2 5 25 31 59 56 150 113 272 289 321 461 39 139 45 182 39 272-37 526-465 894-982 846zm134-427c7-8 11-29 9-47-3-31-8-34-85-65-103-40-156-78-215-156-91-120-117-198-118-345 0-51-4-93-9-93s-18 22-29 48c-77 179-47 378 78 515 64 70 123 112 193 137 64 23 160 26 176 6zm355-186c32-36 36-46 36-94 0-50-3-57-37-86-32-29-41-32-81-27-32 3-53 13-74 34-81 82-34 213 77 213 37 0 47-5 79-40zm-4784 601c-14-5-38-9-53-10-44-2-171-56-250-107-137-89-273-244-332-378-59-135-70-191-69-361 0-146 3-168 28-250 54-176 149-318 296-443 276-233 702-266 1014-80 89 54 214 173 270 256 109 164 164 360 153 536-27 397-245 686-614 813-71 24-94 27-248 29-93 2-181-1-195-5zm347-441c96-47 183-136 231-237 36-76 37-80 37-193-1-94-5-125-23-171-43-109-50-106-50 21 0 97-4 126-25 187-53 151-148 245-312 309-91 35-99 43-91 89 7 37 7 37 86 33 63-4 92-11 147-38zm-449-131c41-14 72-65 72-119 0-36-6-48-39-81s-45-39-81-39-48 6-76 35c-58 62-55 137 8 190 32 27 67 31 116 14zm3012-961c-52-15-86-43-104-88-34-86-6-175 69-217 73-42 146-25 208 47 32 37 37 51 37 92 0 53-10 79-44 116-41 46-107 66-166 50zm-1387-18c-60-36-90-134-62-207 38-101 173-133 255-60 46 40 64 76 64 130 0 52-29 100-79 134-45 30-132 32-178 3zM5592 9344c-151-76-99-330 63-312 53 6 102 37 135 85 45 66 12 181-62 216-55 26-99 29-136 11zm9098 6c-136-24-176-201-64-286 73-56 173-35 227 48 76 118-22 263-163 238zm-3702 63c7-3 16-2 19 1 4 3-2 6-13 5-11 0-14-3-6-6z"/></g></svg><svg xmlns="http://www.w3.org/2000/svg" width="2048" height="2048" version="1.0" viewBox="0 0 2048 2048"><g fill="#558755" transform="matrix(.1 0 0 -.1 0 2048)"><path d="M0 10240V0h20480v20480H0V10240zm10371 4281c164-51 301-191 352-356 19-60 32-215 19-215-5 0-43 23-85 50-163 109-327 157-503 147-56-3-130-13-165-22-88-22-218-87-284-140-30-25-58-45-61-45s-4 48-2 108c4 95 8 116 39 187 47 110 133 197 254 256 47 23 110 45 138 50 81 12 224 3 298-20zm-2181-411c301-36 546-152 740-349 176-179 292-380 317-550 34-226 91-385 189-523 224-314 537-452 894-394 190 31 321 97 473 236 170 157 278 384 316 670 15 110 77 262 143 350 19 25 46 65 60 90s64 82 110 126c311 303 806 426 1198 297 366-120 636-395 744-756 66-217 78-422 37-596-48-208-144-394-281-550-186-210-365-313-664-381-53-12-103-28-111-37-8-8-15-32-15-53 0-65 67-100 232-119 178-21 386 32 531 136 39 27 51 32 63 22 27-22 153-293 193-414 41-125 71-276 71-354 0-71-19-122-60-163-31-31-45-38-76-38-50 1-123 31-254 107-449 260-1001 470-1560 593-52 11-123 27-157 35s-92 20-130 25c-37 6-95 15-128 21-67 10-152 21-365 46-215 25-833 24-1020-1-74-10-166-22-205-27-38-4-98-13-132-18-35-6-89-15-120-20-32-5-80-14-108-20-27-6-63-14-80-17-193-35-504-118-746-198-407-133-620-227-954-417-183-104-251-123-306-86-54 36-73 87-73 192 1 122 33 255 116 480 40 110 125 285 138 285 4 0 25-13 48-29 105-77 259-132 402-146 125-12 330 38 365 89 34 47 4 96-70 114-287 73-394 120-556 248-177 138-315 331-386 539-41 119-73 289-73 388 0 161 70 450 137 567 205 355 503 553 899 599 101 12 121 12 214 1zm2098-424c186-40 343-195 381-374 27-131 0-287-69-387-43-63-132-140-198-171-123-59-311-57-436 5-140 69-259 246-272 407-13 167 41 317 144 398 147 117 291 156 450 122zm-488-3288c145-50 213-61 375-62 203-1 386 38 532 112 41 21 41 21 82-8 22-17 46-30 52-30 17 0 129-62 129-71 0-4 8-9 18-11 11-2-11-22-68-60-170-112-365-175-618-199-286-27-579 40-824 188-75 45-156 113-100 84 17-9 22-9 22 0 0 7 3 10 6 6 3-3 27 8 54 24 26 16 52 29 58 29 7 0 9 8 5 18-3 9-3 14 2 10 4-4 22-1 40 7 19 7 36 11 39 8s4 4 1 15c-4 21-2 21 53-5 31-14 95-39 142-55zm-3565-548c133-12 233-33 342-71 113-40 273-115 273-129 0-10-34-57-121-165-107-134-189-410-189-636 0-43 13-157 30-253 16-96 27-181 24-189-7-19-37-32-120-53-185-45-274-137-274-281 1-80 21-136 103-280 58-102 84-182 73-226-9-39-60-83-121-106-55-21-56-21-93-2-61 31-199 146-313 261-336 339-560 749-620 1132-16 107-7 314 18 403 70 245 227 421 464 521 96 40 230 68 399 83 8 0 65-4 125-9zm8312-29c46-11 111-35 145-52 302-152 460-394 475-725 10-218-40-423-165-679-122-248-278-461-483-661-126-124-155-148-242-208-92-62-109-65-175-31-74 39-102 78-102 142 0 52 11 79 108 254 93 168 95 277 9 375-45 51-101 83-205 114-84 26-136 63-127 91 22 68 54 309 55 406 0 109-30 295-65 399-48 143-132 283-214 357-23 20-41 41-41 46 0 25 302 140 446 170 143 30 143 30 329 26 129-3 190-8 252-24zm-5134-156c157-75 280-117 419-144 172-33 293-44 414-37 299 17 517 77 797 220 70 37 107 51 111 43 2-7 5-3 5 7 1 19 1 19 20 0 10-10 16-26 14-34-4-12-3-13 5-1 12 16 35 5 25-12-5-9-3-9 8 0s18 8 32-1c9-7 17-18 17-24 0-7 13-9 34-5 30 5 34 2 40-22 4-14 11-25 17-23 13 4 10 24-3 20-5-1-6 2-3 8 5 8 14 5 28-7 20-17 20-17 13 2-6 16-5 17 5 8 9-9 16-10 26-2 7 7 13 9 13 7 0-9-171-132-245-177-226-137-434-211-735-262-100-17-442-17-550 0-212 33-380 83-555 166-149 70-365 207-366 232-1 15-21 33-32 26-6-4-7-1-2 6 5 9 13 7 29-8 22-20 22-20 35 2 14 21 13 21-5 7-17-14-18-14-6 1 7 10 21 15 32 12 12-3 22 1 26 11 3 9 12 16 20 16 7 0 30 11 50 25 21 14 44 23 51 21 7-3 15 0 19 6 5 7 2 8-7 3-8-5-11-5-7 0 4 4 2 15-5 24-6 8 10 0 36-18 27-18 108-62 180-96zm-1805-389c68-23 118-14 180 30 81 58 105 68 148 57 38-9 39-10 46-63 4-30 11-149 17-265 25-493 128-910 336-1354 162-348 317-585 567-868 179-203 311-317 559-484 197-133 229-173 229-292 0-127-96-217-232-217-80 0-176 33-373 129-391 189-675 389-955 670-255 256-417 476-559 761-143 289-234 588-283 930-21 150-18 656 5 790 26 149 45 236 69 306l20 60 87-86c69-71 96-91 139-104zm5422 71c85-283 107-727 55-1079-52-346-123-581-262-865-211-433-590-871-1003-1160-217-152-598-356-755-404-213-65-365 22-365 208 0 116 39 163 274 323 245 168 428 338 621 580 169 212 275 381 418 666 227 452 367 1044 367 1547 0 165 0 168 25 192 38 39 84 29 167-38 46-37 129-58 178-44 47 13 103 53 175 126 32 33 63 57 68 52 4-4 21-51 37-104zm-2757-661c18-7 51-33 73-58 128-139 34-358-154-358-129 0-215 86-216 216 0 121 90 214 206 214 32 0 73-6 91-14zm1014-603c-9-21-9-27 1-31 6-2 12-11 12-21 0-19 58-51 94-51 13 0 31-9 40-19 18-20 31-21 56-7 8 5 4-3-9-17-13-15-28-24-34-20-6 3-7 1-3-5 7-12-98-100-205-173-438-297-1074-390-1599-232-262 78-517 223-675 383-38 39-62 68-52 64 9-3 17-9 17-13s7-8 15-8 15 6 15 14c0 7 11 13 24 13 14 0 28 5 31 10 4 6 14 10 23 8 10-1 36 6 59 17 36 16 40 21 30 33-10 13-9 14 13 3 25-12 25-12 1 8-42 38-11 22 87-43 261-173 498-256 816-287 202-20 436 7 665 77 144 43 397 172 503 256 22 17 43 26 50 22s10-3 5 1c-4 5 0 17 10 27 22 25 25 23 10-9zM6177 6878c68-35 123-66 123-69 0-4-28-16-62-29-106-38-320-130-384-166-76-41-115-81-164-164-64-109-125-150-224-150-40 0-63 7-98 29-150 95-141 291 19 397 90 60 217 107 528 197 97 28 128 23 262-45zm8348 28c161-43 286-86 390-136 153-74 199-134 200-260 0-70-2-78-34-122-46-65-105-91-187-86-88 5-129 36-193 142-60 99-95 131-211 190-80 41-343 146-402 161-16 4-28 10-28 14s50 31 111 61 113 58 115 62c11 18 116 6 239-26zm-7440-413c111-64 185-113 185-124 0-5-17-9-37-9-21 0-76-7-123-16-47-8-107-19-135-24-56-9-175-49-222-73-32-17-113-102-113-120 0-23-76-110-114-129-51-27-147-30-191-6-82 44-115 99-115 191 0 109 52 182 175 246 75 40 254 96 370 115 173 30 183 28 320-51zm6585 41c236-53 423-143 465-224 41-80 37-182-11-251-38-55-93-82-169-82-92-1-140 33-205 143-55 93-112 132-252 175-84 26-311 64-380 65-41 0-51 15-18 25 11 3 20 10 20 15 0 11 180 120 245 149 61 27 133 23 305-15zm-5775 7234c-296-57-571-306-653-593-50-174-52-313-8-488 41-161 118-290 248-413 120-114 223-175 360-214 92-27 301-37 407-21 101 16 232 67 317 124 85 56 199 169 254 252 49 74 105 210 125 307 29 141 15 338-34 481-44 128-101 217-201 317-133 133-270 209-440 245-80 17-293 18-375 3zm328-418c213-80 349-321 304-536-18-84-55-176-70-171-6 2-11 53-12 122-1 101-6 131-27 186-51 137-145 227-308 294-90 38-90 38-90 76 0 25 6 42 18 49 25 15 118 6 185-20zm-419-144c58-24 98-104 77-158-5-13-23-39-41-56-27-27-39-32-78-32-50 1-65 8-100 54-42 55-22 148 41 186 38 24 57 25 101 6zm4287 557c-95-20-222-75-294-126-71-51-197-179-247-252-116-169-166-477-112-691 40-160 121-300 239-417 119-117 203-169 350-214 80-25 102-27 248-27 144 1 169 3 250 27 148 44 261 107 360 199 144 135 222 265 270 451 38 147 34 279-15 456-53 195-237 419-422 512-153 77-252 99-433 98-71-1-159-8-194-16zm254-407c9-14 15-37 13-53-3-24-11-31-73-53-138-52-191-93-266-208-67-103-83-155-84-285 0-59-5-108-10-110-28-7-84 169-85 264 0 59 42 190 82 251 79 124 231 214 365 217 35 1 46-4 58-23zm346-172c59-56 62-139 8-194-95-95-257 39-194 161 37 71 129 88 186 33zm-3251-966c-77-53-99-132-61-212 28-58 73-86 136-86 100 0 165 62 165 158 0 68-20 105-73 137-57 33-121 34-167 3zm1355 8c-54-24-95-90-95-153 0-57 69-142 127-156 79-19 186 56 199 139 18 122-116 221-231 170zM5555 9307c-71-70-71-163 0-234 29-29 39-33 88-33 47 0 62 5 99 33 73 56 87 143 32 214-32 42-78 63-135 63-36 0-48-6-84-43zm9100 29c-40-17-81-67-90-107-11-50 13-114 56-154 34-31 45-35 93-35 67 0 112 28 144 90 38 75 24 134-43 186-43 32-114 41-160 20zm-3390-1305c-3-5-2-12 3-15s9 1 9 9c0 17-3 19-12 6z"/></g></svg><svg xmlns="http://www.w3.org/2000/svg" width="2048" height="2048" version="1.0" viewBox="0 0 2048 2048"><g fill="#2c5836" transform="matrix(.1 0 0 -.1 0 2048)"><path d="M0 10240V0h20480v20480H0V10240zm10333 4295c240-63 398-252 414-500 3-52 3-95 0-95s-35 20-71 45c-92 62-192 111-283 137-109 31-294 31-406-1-98-27-196-76-280-140-77-59-76-60-67 89 6 83 12 106 47 180 31 67 53 97 104 145 66 61 182 127 256 144 62 15 223 12 286-4zm-2023-439c354-76 615-263 828-594 56-88 99-196 112-283 39-266 89-396 216-565 240-319 618-444 989-327 98 31 162 62 240 118 80 58 204 186 250 259 79 124 141 293 164 446 26 164 62 267 128 366 21 31 52 79 69 106 46 75 189 214 282 275 417 274 915 292 1308 48 152-95 325-287 409-455 102-203 156-498 126-689-41-259-151-485-327-671-186-196-354-290-629-351-109-24-135-41-135-91 0-40 36-71 112-94 93-28 304-26 411 4 89 25 181 69 249 119l47 34 41-70c86-145 184-400 215-561 43-228-3-360-127-360-49 0-127 34-290 128-261 150-554 280-888 392-297 100-743 212-990 249-41 7-102 16-135 21-61 9-181 22-360 40-264 26-696 21-965-10-41-5-113-13-160-19-137-15-315-48-665-121-244-51-750-216-1020-332-176-76-278-127-447-224-138-80-240-124-285-124-38 0-88 35-109 78-27 54-25 227 5 339 48 184 146 438 205 531l27 43 38-30c21-17 81-51 132-75 125-60 229-81 369-73 205 11 325 77 276 151-15 24-91 56-131 56-28 0-193 55-273 91-202 91-417 293-529 497-118 213-175 502-143 720 42 298 138 498 329 695 168 173 381 279 646 323 98 16 282 11 385-10zm1992-410c175-42 326-191 367-360 32-131 5-290-67-402-131-202-416-276-642-167-124 60-239 223-266 378-26 152 27 329 125 417 142 126 314 174 483 134zm-828-3115c125-95 333-184 503-217 231-44 528-3 738 104 63 31 208 126 225 147 19 23 32 19 85-30 42-38 54-44 79-39 26 6 28 4 23-15-3-14 1-26 16-36 18-13 22-12 34 3 13 15 13 15 4-4-14-29-120-125-206-186-364-259-914-311-1336-128-158 68-308 170-410 277l-56 58 38 1c22 1 49 10 65 23 15 11 32 21 39 21s16 7 19 16c3 8 10 13 15 9 5-3 13 4 16 16 4 13 12 18 22 15 11-5 13-2 9 9-7 19-3 17 78-44zm-444-652c339-284 730-429 1152-429 272 0 492 48 737 160 169 77 338 184 451 286 23 21 44 33 51 28 8-4 9-3 5 4-14 23 16 11 42-16 26-28 69-52 57-32-6 10 21 3 40-10 6-4 18-10 29-14 14-5 17-3 12 11-6 14-5 15 5 6 10-10 9-15 0-27-13-15-7-36 10-36 5 0 9 5 9 11 0 5-4 7-10 4-5-3-10-2-10 3 0 6 11 9 24 8 30-1 30-1-79-115-145-152-385-312-609-407-100-42-311-101-456-126-112-19-509-16-625 6-335 62-623 190-880 390-68 53-203 182-244 235-29 36-29 36-6 36 13 0 21-3 18-7-2-5 0-8 6-8 5 0 13 5 16 10 3 6 14 10 25 10 10 0 20 6 23 14 3 7 20 16 37 20 23 4 31 10 27 20s-1 13 9 9 12 0 7 13-3 16 10 11c12-4 14-2 10 11-5 14-2 13 18-4 13-12 53-45 89-75zm-2645-84c44-9 116-28 160-42 89-28 297-123 321-147 8-9 22-16 30-16 22 0 17-44-17-160-80-269-102-429-103-755-1-264 3-315 39-530 60-353 178-680 372-1034 35-63 62-116 60-117-7-7-253 42-357 72-159 44-443 173-583 264-66 42-77 53-67 65 11 13 8 14-18 9-41-8-88 20-212 124-393 329-683 786-771 1215-26 131-28 329-4 437 22 99 101 259 166 338 123 148 316 248 554 287 112 18 318 13 430-10zm8110 0c172-30 307-105 450-249 72-72 99-108 133-176 117-233 124-531 21-827-117-336-361-693-649-951-144-128-240-192-291-192-25 0-39-5-39-12 0-17-108-96-191-141-157-85-428-186-579-216-30-6-87-17-127-26-40-8-77-15-82-15-19 0-12 23 28 84 51 78 186 359 240 498 112 289 188 668 206 1028 12 218-31 547-105 819-22 79-40 149-40 155s8 16 19 21c138 74 200 103 280 132 241 87 489 110 726 68zm-1569-283c-4-3-11 0-16 8-15 24-11 33 6 15 9-9 13-19 10-23zm37-9c111-263 151-491 151-858 1-199-3-267-22-395-54-364-133-625-279-912-234-465-644-917-1087-1203-203-130-472-270-637-330-94-34-215-39-269-11-85 44-124 109-124 206 0 119 39 168 247 312 286 199 450 350 648 598 177 223 263 357 404 640 177 353 284 696 350 1121 16 108 35 362 35 483 0 113 3 143 16 157 12 13 13 22 5 38-6 11-10 48-10 83 1 35 4 53 6 40 2-12 8-20 13-17s7 12 3 20c-6 17 12 21 22 5 10-17 82-12 101 8 11 11 34 17 64 18 26 0 52 4 59 9 7 4 17 3 23-3 8-8 17-7 32 3 19 12 55 17 121 16 50 0 56-4 49-25-4-17-3-18 5-6 10 13 12 13 21 0s11-13 20 0c6 8 8 23 6 33-7 29 9 10 27-30zm-5534-10c1 19 18 20 93 8 28-5 51-4 57 2s15 4 25-6c12-11 24-13 53-7 45 10 93 8 112-4 20-13 71-15 71-4 0 6 6 6 14-1 8-6 18-11 22-9 5 1 20-4 34-11 17-10 25-11 28-2 6 19 22 12 22-10 0-12 4-17 11-14 7 5 10-14 10-56-1-63 8-226 29-511 38-512 200-1028 474-1513 143-251 329-494 545-711 149-150 217-206 401-329 225-151 259-192 260-313 0-125-69-205-196-226-79-13-177 18-419 134-361 172-693 406-963 678-448 452-713 974-816 1612-15 89-36 355-36 450 0 156 22 378 51 525 28 142 74 285 91 285 5 0 7 4 4 9-4 5-3 17 1 27 6 16 7 16 14-2 7-17 8-17 8-1zm548-35c-3-8-6-5-6 6-1 11 2 17 5 13 3-3 4-12 1-19zm2310-816c49-26 77-56 102-112 74-163-75-342-250-300-165 40-224 243-106 367 70 74 164 90 254 45zm1267-338c3-8 2-12-4-9-15 9-12-3 7-36 10-16 23-29 29-29s18-9 25-20c9-12 27-21 47-22 30-2 31-4 16-15-10-7-23-13-28-13-6 0-1-8 11-18 22-17 22-17-20-73-163-216-380-389-640-509-108-50-285-106-427-136-164-35-484-44-661-19-206 29-450 109-619 202-223 123-443 323-574 523-35 52-52 98-20 52 14-21 17-21 51-7 19 8 39 12 44 9s9 0 9 5c0 6 10 21 22 33 21 21 21 21 0 16-32-9-27 5 7 20 22 10 28 18 24 30-4 9 59-46 138-124 243-236 501-385 782-449 270-62 569-60 829 5 313 79 582 236 828 484 63 64 115 116 116 116s5-7 8-16zm186-74c0-5-5-10-11-10-5 0-7 5-4 10 3 6 8 10 11 10 2 0 4-4 4-10zm-3010-35c0-12-19-12-23 0-4 9-1 12 9 8 7-3 14-7 14-8zM6163 6890c166-87 161-82 86-109-118-43-303-122-379-163-92-49-122-76-167-153-76-131-124-165-233-165-147 0-242 139-200 291 18 65 81 124 191 179 129 64 484 177 567 179 12 1 73-26 135-59zm8347 24c139-36 243-71 350-117 196-84 260-154 260-287 0-128-82-210-210-210-100 0-152 37-219 153-42 74-104 128-202 177-91 46-247 110-354 145-38 13-71 28-73 34-2 5 43 33 100 61 57 29 108 55 113 60 30 24 99 19 235-16zm-1095-339c230-22 406-65 553-136 136-65 184-120 198-227 9-69-10-125-59-176-50-52-106-71-182-61-78 10-127 50-178 145-47 87-116 133-263 174-126 35-173 44-308 58-100 10-120 15-124 30-2 10-10 18-17 18-14 0-17 47-4 56 5 3 9-2 9-12 0-13 4-11 19 7 11 13 15 26 10 27-17 7-9 17 14 18 24 2 87 52 87 70 0 6 16 11 36 12s39 4 42 7c7 6-7 7 167-10zm-6236-7c29 0 39-3 30-9s-10-9-2-9c7 0 18-12 25-27s24-30 38-33 25-11 25-17 10-19 22-29c31-27 34-58 6-62-13-2-23-8-23-13s-20-9-45-9c-24 0-66-4-92-9s-82-15-123-21c-90-15-200-46-255-73-69-34-103-66-144-136-64-109-126-151-224-151-46 0-92 18-135 55-50 42-66 80-66 160-1 106 40 169 152 234 153 89 505 168 692 155 41-3 95-6 119-6zm5861-188c0-5-7-10-16-10-8 0-12 5-9 10 3 6 10 10 16 10 5 0 9-4 9-10zm-5135 7388c-27-6-82-21-121-34-210-73-425-272-507-469-55-132-61-170-62-345 0-142 3-176 23-243 86-298 332-543 617-616 107-27 269-36 370-22 152 23 263 68 381 156 354 264 456 747 242 1143-88 163-251 307-428 379-141 57-367 79-515 51zm300-408c173-60 302-216 328-397 13-84-4-191-41-277-36-81-48-62-49 77-1 98-5 132-21 175-63 162-144 234-374 330-25 10-28 17-28 55 0 24 3 47 7 50 14 14 122 6 178-13zm-390-154c40-17 75-78 75-130 0-27-9-44-38-76-36-37-43-40-95-40s-58 3-85 36c-54 65-49 139 14 193 39 35 75 39 129 17zm4300 559c-94-17-221-67-297-117-73-48-219-192-265-262-84-127-133-306-133-491 0-140 21-240 75-353 198-418 618-603 1060-465 213 67 391 208 505 403 69 117 120 297 120 424 0 100-37 267-78 359-117 257-350 445-623 502-88 18-265 18-364 0zm229-401c19-18 21-78 4-91-7-5-42-20-78-33-93-33-166-84-217-154-93-126-114-188-114-333 0-93-3-113-15-113-17 0-50 71-70 150-60 243 87 498 331 576 58 18 140 17 159-2zm332-163c38-23 64-76 64-131 0-34-6-48-34-76-29-29-41-34-83-34-93 0-157 88-128 175 7 20 15 38 17 39 1 1 16 12 32 24 36 27 90 29 132 3zm-3229-982c-44-23-73-66-82-121-9-51 26-124 75-156 29-20 45-23 88-20 59 5 94 27 130 79 20 28 23 44 20 91-5 65-27 96-90 129-47 24-93 24-141-2zm1344-1c-79-39-109-125-71-203 29-59 81-95 138-95 53 0 89 18 131 65 27 31 31 43 31 95 0 49-4 64-26 90-32 37-93 70-131 70-15 0-48-10-72-22zM6752 9506c-16-17-18-24-8-22 19 3 29 13 32 31 3 19 3 19-24-9zm-1173-179c-44-29-82-101-75-144 13-87 68-143 139-143 48 0 86 19 126 65 26 30 31 44 31 88 0 67-27 112-83 137-56 26-97 25-138-3zm1067 8c-9-26-7-32 5-12 6 10 9 21 6 23-2 3-7-2-11-11zm-178-992c7-3 16-2 19 1 4 3-2 6-13 5-11 0-14-3-6-6zm8182 985c-106-55-113-194-13-263 88-59 204-7 233 104 10 39 9 49-12 90-42 81-129 110-208 69zm-864-931c3-10 9-15 12-12s0 11-7 18c-10 9-11 8-5-6zm214-861c0-2 8-10 18-17 15-13 16-12 3 4s-21 21-21 13zm-6830-986c0-5 5-10 11-10 5 0 7 5 4 10-3 6-8 10-11 10-2 0-4-4-4-10z"/></g></svg><svg xmlns="http://www.w3.org/2000/svg" width="2048" height="2048" version="1.0" viewBox="0 0 2048 2048"><g fill="#001b19" transform="matrix(.1 0 0 -.1 0 2048)"><path d="M0 10240V0h20480v20480H0V10240zm10297 4305c211-40 376-189 437-394 15-51 23-211 10-211-3 0-40 23-81 51-90 60-206 113-294 134-92 21-275 19-369-4-124-32-246-94-323-166-43-41-50-26-45 89 5 89 10 113 43 189 20 48 55 107 77 132 80 91 234 172 351 185 97 11 110 11 194-5zm-2024-440c180-31 328-90 476-189 243-163 458-452 498-669 53-298 88-397 186-540 150-220 345-356 577-403 111-22 301-15 410 16 205 58 397 197 513 373 92 138 148 291 178 484 23 153 59 242 157 393 86 132 195 249 291 313 229 154 491 237 743 237 410 0 790-230 991-600 120-220 175-538 133-762-57-300-212-559-450-752-149-121-264-175-485-226-68-16-128-33-132-37-5-5-11-23-15-40-5-27-1-37 23-62 35-34 76-47 199-62 75-9 112-8 198 5 127 18 215 51 316 118l75 49 22-27c68-85 195-398 233-571 48-225 28-337-71-388-53-28-113-8-301 98-489 278-1005 469-1648 612-429 95-1017 146-1440 123-907-47-1911-329-2600-728-191-110-271-132-332-88-110 78-87 335 64 718 30 77 104 228 118 244 5 5 41-12 82-40 97-64 186-100 293-119 109-19 158-19 261-1 87 16 148 37 176 63 18 16 24 59 10 79-13 20-65 41-132 53-271 52-530 217-716 457-161 207-260 549-233 804 14 132 57 307 101 408 77 176 248 380 402 480 135 88 323 159 481 182 87 13 259 11 348-5zm2032-417c128-28 280-151 335-271 89-196 50-419-101-569-82-83-157-121-274-139-200-29-380 50-492 220-105 158-117 357-32 520 36 70 42 77 110 133 135 109 283 144 454 106zm-1020-2917c7-24 176-187 236-228 121-83 315-160 473-188 227-39 506 1 706 102 117 59 179 105 299 219 61 58 111 101 111 94 0-11 50-59 63-60 4 0 7 8 7 17 0 13 3 14 12 5 7-7 18-12 25-12s36-11 65-25c28-14 59-25 67-25 10 0 12-3 6-8-6-4-23-25-39-47-52-71-188-206-280-276-157-123-313-195-531-247-100-24-129-26-315-27-220 0-288 9-444 60-100 33-260 113-355 178-85 58-272 235-319 303l-31 44 29 15c17 9 30 22 30 30 0 10 10 15 30 15 17 0 30-4 30-10 0-16 20-12 52 11 23 17 27 24 16 31-10 7-8 13 11 28 29 25 38 25 46 1zm-575-502c0-6-4-7-10-4-5 3-10 11-10 16 0 6 5 7 10 4 6-3 10-11 10-16zm70-87c180-219 433-419 659-524 180-83 333-126 536-153 251-32 507-8 755 72 128 42 367 163 483 245 100 71 317 262 317 278 0 13 102 111 108 105 3-3 6-15 7-28 1-12 8-22 16-22s18-6 22-12c4-7 21-13 37-13 17 0 30-4 30-10 0-14 38-12 43 3 2 7 8 8 13 3s4-11-3-13c-7-3-13-12-13-20 0-13 3-13 15-3 23 19 19-9-5-40-11-14-20-30-20-37 0-6-4-13-8-15-5-1-27-29-50-60-64-87-218-244-302-308-380-290-766-422-1230-422-462 0-886 151-1246 443-86 70-248 239-298 311-111 159-148 221-110 184 13-14 19-14 49-2 24 10 36 11 44 3s11-5 11 11c0 21 9 26 38 23 9-1 11 6 6 23-4 17-1 27 13 35 10 6 20 10 23 10s30-30 60-67zm3870-222c0-5 6-7 13-4 32 12 170-157 254-313 225-417 267-1080 107-1715-174-694-687-1377-1336-1780-313-194-594-324-728-335-84-7-136 8-189 54-55 47-81 102-81 173 0 107 56 182 215 291 192 132 222 155 317 236 170 146 392 400 526 598 229 338 417 760 517 1158 90 358 114 634 114 1325 0 198 3 292 10 287 6-3 21 1 34 10 13 8 44 18 70 21 39 6 47 4 47-10 0-9 5-16 10-16 6 0 10 5 10 11s9 8 20 4c18-6 20-3 14 19-6 25-6 25 25 10 17-9 31-19 31-24zm-4770-30c8-1 31 0 50 1 81 4 74 34 65-283-4-156-7-287-7-293 3-109 25-474 32-545 27-249 75-465 158-717 188-563 481-1045 869-1424 151-148 205-192 387-314 82-55 169-119 193-143 74-74 91-188 43-282-24-47-55-75-115-100-101-44-219-13-514 134-251 126-481 273-691 440-114 91-375 357-471 481-431 552-637 1188-616 1900 15 491 125 834 348 1079 69 77 83 82 175 74 44-4 86-8 94-8zm-1537-85c126-19 273-68 432-145 69-33 130-60 135-60 17 0 11-42-24-165-84-292-106-449-106-776 0-129 4-260 9-290s14-99 21-154c18-145 62-329 125-518 78-235 123-335 285-630 23-43 40-80 37-83s-22-1-44 4c-21 6-60 15-88 21-276 57-390 94-610 201-77 38-176 93-220 122s-104 67-135 83c-73 40-186 133-305 252-418 417-664 940-642 1362 12 222 84 387 237 541 73 74 100 93 190 138 58 28 130 58 160 66 164 46 367 58 543 31zm8112 0c170-27 263-67 401-171 137-103 221-220 273-381 114-351 19-755-283-1210-173-260-519-598-659-643-21-6-71-36-110-66-139-105-472-253-662-294-71-15-288-60-292-60-12 0 3 36 43 100 59 94 167 319 227 471 141 356 211 733 211 1134 0 281-31 496-110 768-39 137-40 147-16 147 10 0 22 4 28 9 20 20 174 91 270 124 87 30 246 68 339 80 75 10 258 6 340-8zm-4187-1151c84-35 141-120 142-212 0-70-18-108-72-159-65-59-126-74-215-51-53 13-116 70-139 124-18 42-18 135-1 177 47 111 177 167 285 121zm-1603-54c-3-5-2-10 3-10s28-30 50-67c53-90 160-231 247-327 133-146 296-266 499-365 227-111 425-154 716-153 248 0 432 33 630 111 72 29 295 147 340 180 221 162 360 310 516 550 57 88 62 93 73 73 7-12 19-22 27-22 10 0 13-6 10-18-7-19 28-82 45-82 6 0 9-9 6-20s-1-20 3-20c12 0-42-128-87-209-153-275-441-530-758-669-905-398-1950-72-2373 740-52 100-84 200-76 235 7 27 7 27 16 4 10-27 32-23 36 7 2 12 10 22 18 22s14 9 14 21c0 14 5 19 15 16 8-4 17-2 20 3 4 6 8 10 11 10s2-4-1-10zM6166 6893c149-79 151-80 139-91-5-5-39-19-75-32-127-45-345-143-404-181-65-41-101-79-134-145-33-65-72-105-127-130-81-38-153-28-231 31-101 77-100 251 2 350 70 68 302 163 574 234 118 30 134 28 256-36zm8319 31c138-35 236-66 328-103 241-97 307-162 309-309 1-55-3-76-21-105-51-83-128-124-213-114-81 10-130 46-184 135-62 101-86 126-166 174-71 42-257 121-398 168-46 16-86 33-88 38-1 5 55 39 125 75 149 77 163 79 308 41zm-7120-338c66-8 133-19 148-25 43-17 90-56 160-134l64-72-276-1c-238 0-293-4-396-22-252-46-363-101-417-207-56-109-120-154-220-155-71 0-96 10-147 55-97 88-93 242 7 339 103 100 332 175 667 216 50 7 97 13 105 15 41 8 198 3 305-9zm6069-6c359-44 633-147 702-265 28-49 39-115 30-179-5-34-18-57-52-95-70-78-160-96-249-50-49 25-71 49-138 153-40 62-103 106-194 134-181 58-383 82-675 82-120 0-218 3-218 7 0 9 169 172 190 183 29 15 156 39 177 34 11-3 24-1 27 5 11 18 221 13 400-9zm-5529 7183c-252-45-490-227-613-470-74-145-101-378-63-558 65-317 321-591 626-671 55-15 107-19 245-19 155 0 183 3 250 23 317 99 554 383 600 718 24 177-22 403-114 568-89 159-279 313-464 377-123 42-329 57-467 32zm307-403c163-61 285-198 319-358 15-75 6-190-22-272-24-73-35-90-55-90-11 0-14 24-14 115 0 92-4 128-22 177-49 145-151 247-300 303-98 37-114 53-102 102 8 35 13 39 49 44 49 7 86 1 147-21zm-392-153c39-19 70-74 70-124 0-37-6-50-39-85-35-38-43-42-89-42-41-1-56 4-77 24-61 57-70 127-25 191 40 55 94 67 160 36zm4325 559c-221-36-395-138-539-317-134-166-197-372-183-603 13-218 109-422 271-579 173-168 358-235 617-224 290 11 518 129 690 355 154 204 208 474 144 725-79 308-316 548-620 628-101 26-271 33-380 15zm197-393c21-19 25-85 6-101-7-5-50-24-95-42-95-36-163-91-224-181-71-105-82-139-87-281s-15-160-52-88c-140 274 18 622 316 694 80 19 114 19 136-1zm311-157c56-24 80-59 85-125 4-56 3-61-31-97-31-34-41-39-80-39-108 0-182 129-121 212 20 28 77 63 102 63 7 0 27-6 45-14zm-3168-986c-100-22-145-132-94-231 63-124 263-84 284 57 17 107-83 199-190 174zm1338 3c-40-8-102-74-112-119-20-94 58-194 152-194 42 0 121 49 141 89 36 70 9 163-59 202-33 19-88 29-122 22zM5615 9343c-75-19-126-114-102-188 38-117 146-145 241-62 33 28 39 40 43 83 8 80-34 142-112 163-22 6-42 10-45 10-3-1-14-4-25-6zm9003-41c-36-34-42-45-45-93-5-63 18-107 77-147 90-61 220 28 220 149 0 36-6 48-44 85-42 42-46 44-105 44-58 0-64-2-103-38z"/></g></svg></g></svg>
